<svg width="659" height="490" viewBox="0 0 659 490" fill="none" xmlns="http://www.w3.org/2000/svg">
<g clip-path="url(#clip0)">
<path d="M226.668 415.447C221.777 412.144 221.777 404.926 226.668 401.5L278.876 365.9C282.3 363.575 287.068 366.022 287.068 370.182L287.068 379.846C287.068 382.782 289.513 385.229 292.448 385.229L368.62 385.229C371.555 385.229 374 387.676 374 390.612L374 426.58C374 429.516 371.677 431.84 368.743 431.84L292.448 431.84C289.513 431.84 287.068 434.287 287.068 437.223L287.068 446.766C287.068 450.925 282.422 453.494 278.876 451.048L226.668 415.447Z" fill="#FFC400"/>
<path d="M342.857 164.63L287.146 203.943C282.582 207.163 276.273 202.87 277.883 197.369L296.409 132.429C297.08 130.014 296.275 127.599 294.395 125.989L240.564 83.8582C236.134 80.3697 238.416 73.2585 244.054 73.1243L311.847 70.8434C314.263 70.7092 316.411 69.2333 317.217 66.9524L340.575 3.75685C342.454 -1.4759 349.972 -1.4759 351.852 3.75685L375.344 67.0865C376.15 69.3675 378.297 70.9776 380.714 70.9776L448.507 73.2585C454.145 73.3927 456.427 80.5038 451.997 83.9923L398.165 126.123C396.286 127.599 395.481 130.148 396.152 132.563L414.677 197.503C416.288 203.004 410.113 207.297 405.415 204.077L349.838 164.63C347.69 163.154 344.871 163.154 342.857 164.63Z" fill="#544285"/>
<path d="M391.856 490C404.743 490 415.214 484.767 422.866 477.119C430.652 484.901 443.54 490 453.876 490C479.785 490 503.009 469.337 503.009 440.893V240.975H471.999V440.893C471.999 448.675 464.213 456.457 456.427 456.457C448.641 456.457 440.855 448.675 440.855 440.893V327.114H409.845V440.893C409.845 448.675 402.058 456.457 394.272 456.457C386.486 456.457 378.7 448.675 378.7 440.893V327.114H347.69V440.893C342.723 466.654 365.947 490 391.856 490Z" fill="#FFC400"/>
<path d="M430.384 153.494C409.979 153.494 394.675 163.691 379.371 173.888C369.169 133.1 328.359 102.508 287.549 102.508C231.435 102.508 190.76 148.395 190.76 199.247C190.76 255.331 236.671 295.986 287.549 295.986H430.25C471.059 295.986 501.667 265.394 501.667 224.606C501.667 183.817 471.194 153.494 430.384 153.494Z" fill="#FFC400"/>
<path d="M466.495 225.277C516.031 225.277 557.378 266.602 557.378 316.112C557.378 324.833 557.378 331.273 556.17 337.714H59.4698C56.1137 325.772 53.6973 312.623 53.6973 299.608C53.6973 233.595 103.233 184.085 169.281 184.085C218.816 184.085 260.163 217.092 276.675 266.602C293.187 258.417 309.699 250.099 326.211 250.099C351.046 250.099 367.558 258.283 384.07 274.786C400.448 250.099 433.471 225.277 466.495 225.277Z" fill="#24D7FF"/>
<path d="M643.831 296.12C654.033 280.824 659.134 265.528 659.134 250.233C659.134 199.247 618.324 158.458 567.312 158.458C526.502 158.458 495.894 183.951 480.591 214.543C465.287 199.247 444.882 189.05 419.376 189.05C378.566 189.05 342.857 224.74 342.857 265.528C342.857 275.726 342.857 285.923 347.958 296.12H643.831Z" fill="#544285"/>
<path d="M595.771 444.784C590.804 444.784 588.388 442.369 585.972 439.819C583.555 437.404 578.588 432.44 571.205 432.44C563.822 432.44 558.855 437.404 556.438 439.819C554.022 442.234 551.471 444.784 546.638 444.784C541.671 444.784 539.255 442.369 536.839 439.819C534.422 437.404 529.455 432.44 522.072 432.44C514.689 432.44 509.722 437.404 507.305 439.819C504.889 442.234 502.338 444.784 497.505 444.784C492.538 444.784 490.122 442.369 487.706 439.819C485.289 437.404 480.322 432.44 472.939 432.44V439.819C477.906 439.819 480.322 442.234 482.739 444.784C485.155 447.199 490.122 452.163 497.505 452.163C504.889 452.163 509.856 447.199 512.272 444.784C514.689 442.369 517.239 439.819 522.072 439.819C527.039 439.819 529.455 442.234 531.872 444.784C534.288 447.199 539.255 452.163 546.638 452.163C554.022 452.163 558.989 447.199 561.405 444.784C563.822 442.369 566.372 439.819 571.205 439.819C576.172 439.819 578.588 442.234 581.005 444.784C583.421 447.199 588.388 452.163 595.771 452.163C603.155 452.163 608.122 447.199 610.538 444.784C612.955 442.369 615.505 439.819 620.338 439.819V432.44C612.955 432.44 607.988 437.404 605.571 439.819C603.155 442.369 600.738 444.784 595.771 444.784ZM595.771 415.266C590.804 415.266 588.388 412.85 585.972 410.301C583.555 407.886 578.588 402.922 571.205 402.922C563.822 402.922 558.855 407.886 556.438 410.301C554.022 412.716 551.471 415.266 546.638 415.266C541.671 415.266 539.255 412.85 536.839 410.301C534.422 407.886 529.455 402.922 522.072 402.922C514.689 402.922 509.722 407.886 507.305 410.301C504.889 412.716 502.338 415.266 497.505 415.266C492.538 415.266 490.122 412.85 487.706 410.301C485.289 407.886 480.322 402.922 472.939 402.922V410.301C477.906 410.301 480.322 412.716 482.739 415.266C485.155 417.681 490.122 422.645 497.505 422.645C504.889 422.645 509.856 417.681 512.272 415.266C514.689 412.85 517.239 410.301 522.072 410.301C527.039 410.301 529.455 412.716 531.872 415.266C534.288 417.681 539.255 422.645 546.638 422.645C554.022 422.645 558.989 417.681 561.405 415.266C563.822 412.85 566.372 410.301 571.205 410.301C576.172 410.301 578.588 412.716 581.005 415.266C583.421 417.681 588.388 422.645 595.771 422.645C603.155 422.645 608.122 417.681 610.538 415.266C612.955 412.85 615.505 410.301 620.338 410.301V402.922C612.955 402.922 607.988 407.886 605.571 410.301C603.155 412.85 600.738 415.266 595.771 415.266ZM595.771 383.332C590.804 383.332 588.388 380.917 585.972 378.368C583.555 375.953 578.588 370.989 571.205 370.989C563.822 370.989 558.855 375.953 556.438 378.368C554.022 380.783 551.471 383.332 546.638 383.332C541.671 383.332 539.255 380.917 536.839 378.368C534.422 375.953 529.455 370.989 522.072 370.989C514.689 370.989 509.722 375.953 507.305 378.368C504.889 380.783 502.338 383.332 497.505 383.332C492.538 383.332 490.122 380.917 487.706 378.368C485.289 375.953 480.322 370.989 472.939 370.989V378.368C477.906 378.368 480.322 380.783 482.739 383.332C485.155 385.748 490.122 390.712 497.505 390.712C504.889 390.712 509.856 385.748 512.272 383.332C514.689 380.917 517.239 378.368 522.072 378.368C527.039 378.368 529.455 380.783 531.872 383.332C534.288 385.748 539.255 390.712 546.638 390.712C554.022 390.712 558.989 385.748 561.405 383.332C563.822 380.917 566.372 378.368 571.205 378.368C576.172 378.368 578.588 380.783 581.005 383.332C583.421 385.748 588.388 390.712 595.771 390.712C603.155 390.712 608.122 385.748 610.538 383.332C612.955 380.917 615.505 378.368 620.338 378.368V370.989C612.955 370.989 607.988 375.953 605.571 378.368C603.155 380.917 600.738 383.332 595.771 383.332ZM595.771 353.814C590.804 353.814 588.388 351.399 585.972 348.85C583.555 346.435 578.588 341.47 571.205 341.47C563.822 341.47 558.855 346.435 556.438 348.85C554.022 351.265 551.471 353.814 546.638 353.814C541.671 353.814 539.255 351.399 536.839 348.85C534.422 346.435 529.455 341.47 522.072 341.47C514.689 341.47 509.722 346.435 507.305 348.85C504.889 351.265 502.338 353.814 497.505 353.814C492.538 353.814 490.122 351.399 487.706 348.85C485.289 346.435 480.322 341.47 472.939 341.47V348.85C477.906 348.85 480.322 351.265 482.739 353.814C485.155 356.229 490.122 361.194 497.505 361.194C504.889 361.194 509.856 356.229 512.272 353.814C514.689 351.399 517.239 348.85 522.072 348.85C527.039 348.85 529.455 351.265 531.872 353.814C534.288 356.229 539.255 361.194 546.638 361.194C554.022 361.194 558.989 356.229 561.405 353.814C563.822 351.399 566.372 348.85 571.205 348.85C576.172 348.85 578.588 351.265 581.005 353.814C583.421 356.229 588.388 361.194 595.771 361.194C603.155 361.194 608.122 356.229 610.538 353.814C612.955 351.399 615.505 348.85 620.338 348.85V341.47C612.955 341.47 607.988 346.435 605.571 348.85C603.155 351.265 600.738 353.814 595.771 353.814ZM605.705 319.332C603.289 321.747 600.738 324.296 595.906 324.296C590.939 324.296 588.522 321.881 586.106 319.332C583.69 316.917 578.723 311.952 571.339 311.952C563.956 311.952 558.989 316.917 556.572 319.332C554.156 321.747 551.605 324.296 546.773 324.296C541.806 324.296 539.389 321.881 536.973 319.332C534.557 316.917 529.59 311.952 522.206 311.952C514.823 311.952 509.856 316.917 507.439 319.332C505.023 321.747 502.472 324.296 497.64 324.296C492.807 324.296 490.256 321.881 487.84 319.332C485.424 316.917 480.457 311.952 473.073 311.952V319.332C478.04 319.332 480.457 321.747 482.873 324.296C485.289 326.711 490.256 331.676 497.64 331.676C505.023 331.676 509.99 326.711 512.406 324.296C514.823 321.881 517.373 319.332 522.206 319.332C527.173 319.332 529.59 321.747 532.006 324.296C534.422 326.711 539.389 331.676 546.773 331.676C554.156 331.676 559.123 326.711 561.539 324.296C563.956 321.881 566.506 319.332 571.339 319.332C576.306 319.332 578.723 321.747 581.139 324.296C583.555 326.711 588.522 331.676 595.906 331.676C603.289 331.676 608.256 326.711 610.672 324.296C613.089 321.881 615.639 319.332 620.472 319.332V311.952C613.089 311.952 610.538 314.367 605.705 319.332Z" fill="#FFC400"/>
<path d="M171.697 130.014C171.697 135.112 169.146 137.527 164.179 137.527C159.078 137.527 156.662 134.978 156.662 130.014C156.662 125.049 159.212 122.5 164.179 122.5C169.146 122.5 171.697 125.049 171.697 130.014Z" fill="#24D7FF"/>
<path d="M280.166 175.498C280.166 180.597 277.615 183.012 272.648 183.012C267.547 183.012 265.13 180.463 265.13 175.498C265.13 170.4 267.681 167.985 272.648 167.985C277.615 167.985 280.166 170.4 280.166 175.498Z" fill="white"/>
<path d="M325.674 286.459C325.674 291.558 323.123 293.973 318.156 293.973C313.055 293.973 310.639 291.424 310.639 286.459C310.639 281.361 313.189 278.946 318.156 278.946C323.123 278.946 325.674 281.495 325.674 286.459Z" fill="#24D7FF"/>
<path d="M60.5437 397.555C60.5437 402.653 57.9931 405.068 53.0261 405.068C47.9248 405.068 45.5085 402.519 45.5085 397.555C45.5085 392.59 48.0591 390.041 53.0261 390.041C57.9931 389.907 60.5437 392.456 60.5437 397.555Z" fill="#13C0D4"/>
<path d="M15.1695 286.459C15.1695 291.558 12.6189 293.973 7.65186 293.973C2.68486 293.973 0 291.558 0 286.459C0 281.361 2.55062 278.946 7.51762 278.946C12.4846 278.946 15.1695 281.495 15.1695 286.459Z" fill="#24D7FF"/>
<path d="M60.5437 175.498C60.5437 180.597 57.9931 183.012 53.0261 183.012C47.9248 183.012 45.5085 180.463 45.5085 175.498C45.5085 170.4 48.0591 167.985 53.0261 167.985C57.9931 167.985 60.5437 170.4 60.5437 175.498Z" fill="#24D7FF"/>
<path d="M111.019 142.626C111.019 147.725 108.469 150.14 103.502 150.14C98.4003 150.14 95.9839 147.59 95.9839 142.626C95.9839 137.662 98.5345 135.112 103.502 135.112C108.603 135.112 111.019 137.662 111.019 142.626Z" fill="#24D7FF"/>
<path d="M229.69 142.626C229.69 147.725 227.14 150.14 222.173 150.14C217.071 150.14 214.655 147.59 214.655 142.626C214.655 137.662 217.206 135.112 222.173 135.112C227.14 135.112 229.69 137.662 229.69 142.626Z" fill="white"/>
<path d="M315.472 225.947C315.472 231.046 312.921 233.461 307.954 233.461C302.987 233.461 300.436 230.912 300.436 225.947C300.436 220.983 302.987 218.434 307.954 218.434C310.505 218.434 315.472 220.849 315.472 225.947Z" fill="white"/>
<path d="M25.2377 344.556C25.2377 349.655 22.6871 352.07 17.7201 352.07C12.7531 352.07 10.2025 349.521 10.2025 344.556C10.2025 339.592 12.7531 337.043 17.7201 337.043C22.6871 337.043 25.2377 342.007 25.2377 344.556Z" fill="#24D7FF"/>
<path d="M25.2377 225.947C25.2377 231.046 22.6871 233.461 17.7201 233.461C12.7531 233.461 10.2025 230.912 10.2025 225.947C10.2025 220.983 12.7531 218.434 17.7201 218.434C22.6871 218.434 25.2377 220.849 25.2377 225.947Z" fill="#24D7FF"/>
<path d="M253.317 329.261C258.687 332.883 258.687 340.8 253.317 344.556L195.995 383.601C192.236 386.15 187.001 383.467 187.001 378.905V368.305C187.001 365.085 184.316 362.401 181.094 362.401H97.4606C94.2387 362.401 91.5539 359.718 91.5539 356.498V317.051C91.5539 313.831 94.1045 311.282 97.3263 311.282H181.094C184.316 311.282 187.001 308.598 187.001 305.378V294.912C187.001 290.351 192.102 287.533 195.995 290.216L253.317 329.261Z" fill="#544285"/>
<path d="M528.918 128.269V143.028C528.918 145.041 527.307 146.785 525.16 146.785H515.226C513.212 146.785 511.467 148.395 511.467 150.542V159.532C511.467 161.544 509.856 163.289 507.708 163.289H492.941C490.928 163.289 489.182 161.679 489.182 159.532V150.274C489.182 148.261 487.571 146.517 485.424 146.517H476.429C474.416 146.517 472.67 144.907 472.67 142.76V128.001C472.67 125.988 474.281 124.244 476.429 124.244H485.424C487.437 124.244 489.182 122.634 489.182 120.487V110.559C489.182 108.546 490.793 106.802 492.941 106.802H507.708C509.722 106.802 511.467 108.412 511.467 110.559V120.487C511.467 122.5 513.078 124.244 515.226 124.244H525.16C527.173 124.513 528.918 126.257 528.918 128.269Z" fill="#FFC400"/>
<path d="M573.89 124.244V128.672C573.89 129.343 573.353 129.745 572.816 129.745H569.863C569.191 129.745 568.789 130.282 568.789 130.819V133.502C568.789 134.173 568.252 134.576 567.715 134.576H563.285C562.613 134.576 562.211 134.039 562.211 133.502V130.819C562.211 130.148 561.674 129.745 561.137 129.745H558.452C557.781 129.745 557.378 129.209 557.378 128.672V124.244C557.378 123.573 557.915 123.171 558.452 123.171H561.137C561.808 123.171 562.211 122.634 562.211 122.097V119.146C562.211 118.475 562.748 118.072 563.285 118.072H567.715C568.386 118.072 568.789 118.609 568.789 119.146V122.097C568.789 122.768 569.326 123.171 569.863 123.171H572.816C573.353 123.171 573.89 123.708 573.89 124.244Z" fill="#13C0D4"/>
<path d="M446.359 169.997V174.425C446.359 175.096 445.822 175.498 445.285 175.498H442.331C441.66 175.498 441.258 176.035 441.258 176.572V179.255C441.258 179.926 440.721 180.329 440.184 180.329H435.754C435.082 180.329 434.68 179.792 434.68 179.255V176.572C434.68 175.901 434.143 175.498 433.606 175.498H430.921C430.25 175.498 429.847 174.962 429.847 174.425V169.997C429.847 169.326 430.384 168.924 430.921 168.924H433.606C434.277 168.924 434.68 168.387 434.68 167.85V164.899C434.68 164.228 435.217 163.825 435.754 163.825H440.184C440.855 163.825 441.258 164.362 441.258 164.899V167.85C441.258 168.521 441.794 168.924 442.331 168.924H445.285C445.822 168.924 446.359 169.461 446.359 169.997Z" fill="#13C0D4"/>
<path d="M568.386 190.123V200.455C568.386 201.93 567.178 203.004 565.835 203.004H558.855C557.378 203.004 556.304 204.211 556.304 205.553V211.859C556.304 213.335 555.096 214.409 553.753 214.409H543.417C541.94 214.409 540.866 213.201 540.866 211.859V205.553C540.866 204.077 539.658 203.004 538.315 203.004H532.006C530.529 203.004 529.455 201.796 529.455 200.455V190.123C529.455 188.647 530.663 187.574 532.006 187.574H538.315C539.792 187.574 540.866 186.366 540.866 185.025V178.048C540.866 176.572 542.074 175.498 543.417 175.498H553.753C555.23 175.498 556.304 176.706 556.304 178.048V185.025C556.304 186.501 557.512 187.574 558.855 187.574H565.835C567.178 187.574 568.386 188.781 568.386 190.123Z" fill="#FFC400"/>
<path d="M495.894 232.522V236.145C495.894 236.681 495.492 237.084 494.955 237.084H492.538C492.001 237.084 491.599 237.486 491.599 238.023V240.17C491.599 240.706 491.196 241.109 490.659 241.109H487.034C486.497 241.109 486.095 240.706 486.095 240.17V238.023C486.095 237.486 485.692 237.084 485.155 237.084H483.007C482.47 237.084 482.067 236.681 482.067 236.145V232.522C482.067 231.985 482.47 231.583 483.007 231.583H485.155C485.692 231.583 486.095 231.18 486.095 230.643V228.228C486.095 227.692 486.497 227.289 487.034 227.289H490.659C491.196 227.289 491.599 227.692 491.599 228.228V230.643C491.599 231.18 492.001 231.583 492.538 231.583H494.955C495.492 231.583 495.894 231.985 495.894 232.522Z" fill="#FFC400"/>
<path d="M78.2638 275.457H83.7678V297.462H78.2638V275.457Z" fill="white"/>
<path d="M89.2717 275.457H94.7757V297.462H89.2717V275.457Z" fill="white"/>
<path d="M100.28 275.457H105.784V297.462H100.28V275.457Z" fill="white"/>
<path d="M111.288 275.457H116.792V297.462H111.288V275.457Z" fill="white"/>
<path d="M122.43 275.457H127.934V297.462H122.43V275.457Z" fill="white"/>
<path d="M134.78 275.457H140.284V297.462H134.78V275.457Z" fill="white"/>
<path d="M145.788 275.457H151.292V297.462H145.788V275.457Z" fill="white"/>
<path d="M156.93 275.457H162.434V297.462H156.93V275.457Z" fill="white"/>
<path d="M438.707 243.122H414.006C404.072 243.122 396.152 251.038 396.152 260.967C396.152 270.895 404.072 278.812 414.006 278.812H438.707C448.641 278.812 456.561 270.895 456.561 260.967C456.427 251.038 448.507 243.122 438.707 243.122ZM367.692 261.906C366.752 258.015 370.646 253.99 374.673 254.929C377.626 254.929 379.64 257.881 379.64 259.893C380.58 263.784 376.686 267.809 372.659 266.87C369.706 266.87 367.692 264.858 367.692 261.906ZM432.666 261.906C431.726 258.015 435.619 253.99 439.647 254.929C442.6 254.929 444.614 257.881 444.614 259.893C445.553 263.784 441.66 267.809 437.633 266.87C434.68 266.87 432.666 264.858 432.666 261.906Z" fill="#FFC400"/>
<path d="M607.719 210.383L616.042 221.922C616.579 222.593 617.653 222.593 618.056 221.922L626.379 210.383C627.05 209.578 626.379 208.371 625.305 208.371H608.659C607.719 208.371 607.182 209.578 607.719 210.383Z" fill="white"/>
<path d="M607.719 237.218L616.042 248.757C616.579 249.428 617.653 249.428 618.056 248.757L626.379 237.218C627.05 236.413 626.379 235.205 625.305 235.205H608.659C607.719 235.205 607.182 236.413 607.719 237.218Z" fill="white"/>
<path d="M607.719 264.187L616.042 275.726C616.579 276.396 617.653 276.396 618.056 275.726L626.379 264.187C627.05 263.382 626.379 262.174 625.305 262.174H608.659C607.719 262.174 607.182 263.248 607.719 264.187Z" fill="white"/>
</g>
<defs>
<clipPath id="clip0">
<rect width="659" height="490" fill="white"/>
</clipPath>
</defs>
</svg>
